<svg xmlns="http://www.w3.org/2000/svg" viewBox="0 0 392 174.8"><path d="M48.9.1L8.5.3C3.8.3 0 4.1 0 8.8v157.5c0 4.7 3.8 8.5 8.5 8.5h38.9c1.3 0 2.7 0 4-.1 6.2-.5 11.2-4.7 12.6-10.7.4-1.6.4-3.3.4-5 0-20.6-.1-41.2.1-61.7.1-7.7-2.9-13.7-10.9-16.2-.1 0-.2-.2-.5-.6 8.4-2.7 11.4-8.6 11.3-16.9-.2-16-.3-32 0-48C64.8 5.8 57.4 0 48.9.1zM36 144.8c0 2.2-1.8 4-4 4s-4-1.8-4-4V24.6c0-2.2 1.8-4 4-4s4 1.8 4 4v120.2zM102.8 98h15.8V71.6h-16.1V28.7H123v-20c0-4.7-3.8-8.5-8.5-8.5L74.2.1v166c0 4.7 3.8 8.5 8.5 8.5h40.5v-29h-20.4V98zM372.2 49.2H392V14.8C392 6.7 385.5.2 377.4.2h-35.6c-8 0-14.6 6.5-14.6 14.6v145.3c0 8.1 6.5 14.6 14.6 14.6h35.6c8 0 14.6-6.5 14.6-14.6V55.7h-19.8c-4.7 0-8.5 3.8-8.5 8.5v82.2c0 2.2-1.7 3.9-3.9 3.9h-.1c-2.1 0-3.9-1.7-3.9-3.9V27.9c0-2.2 1.7-3.9 3.9-3.9h.1c2.1 0 3.9 1.7 3.9 3.9v12.7c-.1 4.8 3.8 8.6 8.5 8.6zM281.3 10.5l16 73.4c.5 2.1-.7 4.3-2.8 4.9-2.2.6-4.4-.8-4.9-3l-17.2-79c-.9-3.9-4.3-6.7-8.3-6.7h-20v174.6h25V76.9c-.1-2.1 1.4-4.1 3.5-4.4 2.3-.2 4.2 1.5 4.4 3.7l4.7 90.4c.2 4.5 4 8.1 8.5 8.1h27.3V.1h-28c-5.3 0-9.3 5-8.2 10.4zM220.1 0h-35.6c-8 0-14.5 6.5-14.5 14.6v131.5h6.9c6 0 10.9 4.9 10.9 10.9v17.6h32.3c8 0 14.5-6.5 14.5-14.6V14.6c0-8.1-6.5-14.6-14.5-14.6zm-13.8 146.4c0 .3 0 .5-.1.8v.1c-.4 1.7-1.9 3-3.8 3h-.1c-2.1 0-3.9-1.8-3.9-3.9V27.8c0-.3 0-.5.1-.8v-.1c.4-1.7 1.9-3 3.8-3h.1c2.2 0 3.9 1.8 3.9 3.9v118.6z"/><path d="M176.9 148.4h-16.8V8.9c0-4.7-3.7-8.4-8.4-8.5L132.6.2v166.1c0 4.7 3.8 8.5 8.5 8.5h44.3v-17.9c0-4.7-3.8-8.5-8.5-8.5z"/></svg>