<svg fill="#F19CAE" xmlns="http://www.w3.org/2000/svg" viewBox="0 0 392 200.2"><path d="M48.9.1L8.5.3C3.8.3 0 4.1 0 8.8v157.5c0 4.7 3.8 8.5 8.5 8.5h38.9c1.3 0 2.7 0 4-.1 6.2-.5 11.2-4.7 12.6-10.7.4-1.6.4-3.3.4-5 0-20.6-.1-41.2.1-61.7.1-7.7-2.9-13.7-10.9-16.2-.1 0-.2-.2-.5-.6 8.4-2.7 11.4-8.6 11.3-16.9-.2-16-.3-32 0-48C64.8 5.8 57.4 0 48.9.1zM36 144.8c0 2.2-1.8 4-4 4s-4-1.8-4-4V24.7c0-2.2 1.8-4 4-4s4 1.8 4 4v120.1zM102.8 98h15.8V71.6h-16.1V28.7H123v-20c0-4.7-3.8-8.5-8.5-8.5L74.2.1v166c0 4.7 3.8 8.5 8.5 8.5h40.5v-29h-20.4V98zM372.2 49.2H392V14.8C392 6.7 385.5.2 377.4.2h-35.6c-8 0-14.6 6.5-14.6 14.6v145.3c0 8.1 6.5 14.6 14.6 14.6h35.6c8 0 14.6-6.5 14.6-14.6V55.7h-19.8c-4.7 0-8.5 3.8-8.5 8.5v82.3c0 2.2-1.7 3.9-3.9 3.9h-.1c-2.1 0-3.9-1.7-3.9-3.9V27.9c0-2.2 1.7-3.9 3.9-3.9h.1c2.1 0 3.9 1.7 3.9 3.9v12.7c-.1 4.8 3.8 8.6 8.5 8.6zM281.3 10.5l16 73.4c.5 2.1-.7 4.3-2.8 4.9-2.2.6-4.4-.8-4.9-3l-17.2-79c-.9-3.9-4.3-6.7-8.3-6.7h-20v174.6h25V76.9c-.1-2.1 1.4-4.1 3.5-4.4 2.3-.2 4.2 1.5 4.4 3.7l4.7 90.4c.2 4.5 4 8.1 8.5 8.1h27.3V.1h-28c-5.3 0-9.3 5.1-8.2 10.4zM220.1 0h-35.6c-8 0-14.5 6.5-14.5 14.6v131.5h6.9c6 0 10.9 4.9 10.9 10.9v17.6h32.3c8 0 14.5-6.5 14.5-14.6V14.6c0-8-6.5-14.6-14.5-14.6zm-13.8 146.4c0 .3 0 .5-.1.8v.1c-.4 1.7-1.9 3-3.8 3h-.1c-2.1 0-3.9-1.8-3.9-3.9V27.8c0-.3 0-.5.1-.8v-.1c.4-1.7 1.9-3 3.8-3h.1c2.2 0 3.9 1.8 3.9 3.9v118.6z"/><path d="M176.9 148.4h-16.8V8.9c0-4.7-3.7-8.4-8.4-8.5L132.6.2v166.1c0 4.7 3.8 8.5 8.5 8.5h44.3v-17.9c0-4.7-3.8-8.5-8.5-8.5z"/><g><path d="M164.6 199.9l.2-.3 3.3-5.7.2-.3h1.4l3.5 6 .2.3v.1h-1.7l-.1-.2-.6-1.2h-4l-.6 1.1-.1.3v.1l-1.7-.2zm5.7-2.3l-1.4-2.7-1.4 2.7h2.8zM183.3 198.9v.7l-.8.2c-.6.2-1.8.3-2.9.3-2.8 0-4.7-1.4-4.7-3.4s1.9-3.4 4.7-3.4c1.3 0 2.6.4 3.3.9v.3l-.2.9c-.7-.5-1.9-1-3-1-1.9 0-3.1.9-3.1 2.2s1.3 2.2 3.1 2.2c.9 0 1.8-.2 2.1-.3v-1.1h-3.5v-.9h4.9v2.4h.1zM194.1 193.6v1.2h-6.2v1.3h4.8v1.2h-4.8v1.4h6.3v1.2h-7.8v-6.4h7.7v.1zM198.9 193.6l4.8 4.8v-4.8h1.5v6.4h-1.8l-4.7-4.6v4.6h-1.6v-6.4h1.8zM216.1 199.4c-.7.5-2.1.8-3.5.8-2.8 0-4.7-1.4-4.7-3.4s1.9-3.4 4.7-3.4c1.4 0 2.8.4 3.6 1.1v.3l-.3 1v.1c-.9-.6-2.1-1.1-3.1-1.1-1.9 0-3.1.8-3.1 2s1.2 2.1 3.1 2.1c1.3 0 2.5-.3 3.2-.8l.1 1.3zM227.6 193.6l-3.7 4.4v2h-1.5v-2l-3.7-4.4h1.8l2.7 3.1 2.6-3.1h1.8z"/></g></svg>