<svg xmlns="http://www.w3.org/2000/svg" viewBox="0 0 30.859 30.945">
  <g data-name="instagram icone">
    <g data-name="Group 26">
      <path d="M15.435 3.475c-2.362 0-4.725.006-7.087 0a4.576 4.576 0 0 0-2.035.505 5.1 5.1 0 0 0-2.03 1.79 5.357 5.357 0 0 0-.667 1.466 5.471 5.471 0 0 0-.153 1.612v13.751a4.646 4.646 0 0 0 .5 2.021 5.014 5.014 0 0 0 1.8 2.045 5.6 5.6 0 0 0 1.464.666 5.363 5.363 0 0 0 1.608.148c2.141.008 4.283 0 6.424 0a1.787 1.787 0 0 1 1.4.573 1.643 1.643 0 0 1 .391 1.653 1.719 1.719 0 0 1-.815 1.021 1.51 1.51 0 0 1-.722.205c-2.463.014-4.925.024-7.388-.007a5.237 5.237 0 0 1-1.653-.269c-.439-.153-.9-.263-1.324-.44a7 7 0 0 1-1.102-.587 8.032 8.032 0 0 1-1.1-.83 14.913 14.913 0 0 1-1.139-1.208 6.951 6.951 0 0 1-1.041-1.724 8.161 8.161 0 0 1-.429-1.268 13.308 13.308 0 0 1-.279-1.392 6.193 6.193 0 0 1-.05-.923V9.257c0-.3-.018-.606.006-.906a11.577 11.577 0 0 1 .179-1.534 9.007 9.007 0 0 1 .476-1.442 7.3 7.3 0 0 1 .635-1.288 13.3 13.3 0 0 1 1.143-1.464 6.866 6.866 0 0 1 1.609-1.31 7.184 7.184 0 0 1 1.731-.81c.314-.089.62-.2.933-.3.12-.035.252-.026.376-.052a14.357 14.357 0 0 1 2.959-.147c4.035 0 8.07-.009 12.106.006a10.67 10.67 0 0 1 1.892.178 7.509 7.509 0 0 1 1.438.473 9.518 9.518 0 0 1 1.306.641 8 8 0 0 1 1.673 1.36 8.452 8.452 0 0 1 1.451 2.051 8.925 8.925 0 0 1 .629 1.684 10.487 10.487 0 0 1 .31 2.763c-.007 4.355 0 8.711-.011 13.066a10.685 10.685 0 0 1-.178 1.9 10.219 10.219 0 0 1-.468 1.444 7.093 7.093 0 0 1-.959 1.771 7.373 7.373 0 0 1-1.5 1.606 14.781 14.781 0 0 1-1.224.859 5.548 5.548 0 0 1-.936.444c-.465.179-.941.332-1.416.483a2.228 2.228 0 0 1-.434.062c-.464.05-.928.127-1.394.139a1.635 1.635 0 0 1-1.468-.753 1.747 1.747 0 0 1 1.548-2.7 4.722 4.722 0 0 0 2.281-.583 5.329 5.329 0 0 0 2.447-2.864 4.358 4.358 0 0 0 .256-1.374c-.01-3.886 0-7.771 0-11.657 0-.919-.011-1.839 0-2.758a4.108 4.108 0 0 0-.316-1.48 5.037 5.037 0 0 0-4.8-3.3c-2.282.014-4.564.005-6.846.005Z" data-name="Path 319"/>
      <path d="M15.275 23.196a7.723 7.723 0 1 1 7.851-7.568 7.689 7.689 0 0 1-7.851 7.568Zm4.437-7.717a4.286 4.286 0 1 0-4.186 4.3 4.321 4.321 0 0 0 4.186-4.3Z" data-name="Path 320"/>
      <path d="M24.852 7.756a1.689 1.689 0 0 1-1.7 1.691 1.638 1.638 0 0 1-1.712-1.735 1.69 1.69 0 0 1 1.745-1.684 1.742 1.742 0 0 1 1.667 1.728Z" data-name="Path 321"/>
    </g>
  </g>
</svg>