<svg xmlns="http://www.w3.org/2000/svg" width="1442.999" height="739.853" viewBox="0 0 1442.999 739.853">
  <g id="LOGO_PRINCIPAL_BASELINE_-_ROSE" data-name="LOGO PRINCIPAL BASELINE - ROSE" transform="translate(-828.484 -729.774)">
    <g id="LOGO">
      <path id="Path_1" data-name="Path 1" d="M1008.354,730.195l-148.726.8a31.365,31.365,0,0,0-31.144,31.417v582.039a31.364,31.364,0,0,0,31.317,31.42l143.295-.022c4.875,0,9.765-.111,14.618-.5,22.649-1.822,41.332-17.517,46.358-39.516,1.366-5.978,1.407-12.344,1.414-18.536.088-76.016-.538-152.043.365-228.052.339-28.623-10.678-50.622-40.032-59.955-.342-.111-.56-.632-1.874-2.2,30.761-10.016,42.08-31.838,41.774-62.478-.593-59.12-1.064-118.266.155-177.367C1066.617,751.2,1039.417,729.626,1008.354,730.195Zm-47.761,534.561a14.557,14.557,0,1,1-29.115,0V820.79a14.557,14.557,0,1,1,29.115,0Z" fill="#eb869e"/>
      <path id="Path_2" data-name="Path 2" d="M1206.759,1091.712h58.075V994.237h-59.29V835.883h75.388v-74a31.363,31.363,0,0,0-31.236-31.42l-148.24-.358V1343.37a31.37,31.37,0,0,0,31.313,31.42h148.95V1267.531h-74.961Z" fill="#eb869e"/>
      <path id="Path_3" data-name="Path 3" d="M2198.429,911.46h73.054V784.4a53.728,53.728,0,0,0-53.579-53.877H2086.79a53.729,53.729,0,0,0-53.583,53.877v537.007a53.732,53.732,0,0,0,53.583,53.881H2217.9a53.731,53.731,0,0,0,53.579-53.881v-385.8h-73.054a31.4,31.4,0,0,0-31.313,31.487v303.757a14.345,14.345,0,0,1-14.305,14.387h-.5A14.348,14.348,0,0,1,2138,1270.856V832.983a14.348,14.348,0,0,1,14.309-14.387h.5a14.345,14.345,0,0,1,14.305,14.387v46.986A31.4,31.4,0,0,0,2198.429,911.46Z" fill="#eb869e"/>
      <path id="Path_4" data-name="Path 4" d="M1863.946,768.391l58.752,271.28c1.679,7.74-2.585,15.943-10.188,18.03a14.551,14.551,0,0,1-18.079-11L1831.253,755a31.348,31.348,0,0,0-30.595-24.777h-73.507v645.068l92.208-.052V1013.949c-.412-7.91,5.111-15.315,12.95-16.142a14.581,14.581,0,0,1,16.08,13.785l17.424,333.873a31.386,31.386,0,0,0,31.269,29.828h100.556V730.224h-103.1A31.431,31.431,0,0,0,1863.946,768.391Z" fill="#eb869e"/>
      <path id="Path_5" data-name="Path 5" d="M1638.44,729.774H1507.319a53.758,53.758,0,0,0-53.575,53.943v485.934h25.3a40.2,40.2,0,0,1,40.132,40.269V1375.1H1638.44a53.727,53.727,0,0,0,53.575-53.906V783.717A53.758,53.758,0,0,0,1638.44,729.774Zm-50.777,540.8a14.45,14.45,0,0,1-.291,2.9c-.04.188-.121.355-.166.539a14.345,14.345,0,0,1-13.9,10.97h-.442a14.372,14.372,0,0,1-14.323-14.41V832.34a14.524,14.524,0,0,1,.291-2.9c.037-.185.122-.351.166-.536a14.342,14.342,0,0,1,13.9-10.97h.442a14.372,14.372,0,0,1,14.324,14.41Z" fill="#eb869e"/>
      <path id="Path_6" data-name="Path 6" d="M1479.5,1278.039h-61.772V762.6a31.366,31.366,0,0,0-30.949-31.417l-70.347-.82v613.684a31.365,31.365,0,0,0,31.313,31.42h163.068v-66.01A31.365,31.365,0,0,0,1479.5,1278.039Z" fill="#eb869e"/>
    </g>
    <g id="BASELINE">
      <path id="Path_7" data-name="Path 7" d="M1434.062,1468.47l.674-1.156,12.136-21.145.641-1.094h5.221l12.748,22.139.733,1.256.1.192h-6.12l-.063-.163-.416-.735-2.209-4.275h-14.795l-2.084,4.012-.545.968-.125.192h-5.991Zm21.235-8.775-5.221-9.928-5.221,9.928Z" fill="#eb869e"/>
      <path id="Path_8" data-name="Path 8" d="M1503.114,1464.772v2.863l-2.784.865a43.427,43.427,0,0,1-10.572,1.127c-10.439,0-17.42-5.014-17.42-12.533s6.981-12.536,17.42-12.536c4.743,0,9.577,1.385,12.074,3.473l-.158.643-.1.418-.766,3.5-.033.159a19.71,19.71,0,0,0-11.017-3.628c-6.981,0-11.591,3.407-11.591,8,0,4.689,4.61,8.128,11.591,8.128a25.356,25.356,0,0,0,7.909-1.223v-3.983h-12.777v-4.5h18.223Z" fill="#eb869e"/>
      <path id="Path_9" data-name="Path 9" d="M1542.826,1445.075v4.5h-22.962v4.788h17.549v4.5h-17.549v5.3h23.216v4.5h-28.787v-23.587Z" fill="#eb869e"/>
      <path id="Path_10" data-name="Path 10" d="M1560.379,1445.075l17.52,17.868v-17.868h5.542v23.587h-6.565l-17.487-17.062v17.062h-5.571v-23.587Z" fill="#eb869e"/>
      <path id="Path_11" data-name="Path 11" d="M1623.852,1466.508c-2.688,1.866-7.909,3.118-13.064,3.118-10.281,0-17.137-5.014-17.137-12.533s6.856-12.536,17.137-12.536c5.059,0,10.281,1.578,13.1,3.924l-.162.61-.125.484-1.219,3.628-.1.322a20.7,20.7,0,0,0-11.433-3.983c-6.819,0-11.37,3.022-11.37,7.552,0,4.559,4.551,7.585,11.37,7.585,4.643,0,9.353-1.16,11.724-2.893Z" fill="#eb869e"/>
      <path id="Path_12" data-name="Path 12" d="M1666,1445.075l-13.484,16.1v7.486h-5.475v-7.486l-13.58-16.1h6.532l9.8,11.6,9.706-11.6Z" fill="#eb869e"/>
    </g>
  </g>
</svg>
